<svg width="16" height="16" viewBox="0 0 16 16" fill="none" xmlns="http://www.w3.org/2000/svg">
<g clip-path="url(#clip0_3732_5979)">
<path d="M14.5 14H1.5C0.67 14 0 13.33 0 12.5C0 11.67 0.67 11 1.5 11H1.6C1.85 11 2.07 10.81 2.1 10.56L2.5 6.92C2.81 4.12 5.17 2 7.99 2C10.81 2 13.17 4.11 13.48 6.92L13.88 10.56C13.91 10.81 14.12 11 14.38 11H14.48C15.31 11 15.98 11.67 15.98 12.5C15.98 13.33 15.31 14 14.48 14H14.5ZM1.5 12C1.22 12 1 12.22 1 12.5C1 12.78 1.22 13 1.5 13H14.5C14.78 13 15 12.78 15 12.5C15 12.22 14.78 12 14.5 12H14.4C13.63 12 12.99 11.43 12.91 10.67L12.51 7.03C12.25 4.73 10.32 3 8.01 3C5.7 3 3.76 4.73 3.5 7.03L3.1 10.67C3.02 11.43 2.37 12 1.61 12H1.51H1.5Z" fill="#24EEBD"/>
<path d="M10 3H9V1.75C9 1.34 8.54 1 8 1C7.46 1 7 1.34 7 1.75V3H6V1.75C6 0.79 6.9 0 8 0C9.1 0 10 0.79 10 1.75V3Z" fill="#24EEBD"/>
<path d="M8 16C6.35 16 5 14.65 5 13H6C6 14.1 6.9 15 8 15C9.1 15 10 14.1 10 13H11C11 14.65 9.65 16 8 16Z" fill="#24EEBD"/>
</g>
<defs>
<clipPath id="clip0_3732_5979">
<rect width="16" height="16" fill="white"/>
</clipPath>
</defs>
</svg>
