<?xml version="1.0" encoding="iso-8859-1"?>
<!-- Generator: Adobe Illustrator 18.0.0, SVG Export Plug-In . SVG Version: 6.00 Build 0)  -->
<!DOCTYPE svg PUBLIC "-//W3C//DTD SVG 1.1//EN" "http://www.w3.org/Graphics/SVG/1.1/DTD/svg11.dtd">
<svg version="1.1" id="Capa_1" xmlns="http://www.w3.org/2000/svg" xmlns:xlink="http://www.w3.org/1999/xlink" x="0px" y="0px"
	 viewBox="0 0 470.46 470.46" style="fill : #24eebd; enable-background:new 0 0 470.46 470.46;" xml:space="preserve">
<g>
	<path d="M386.11,69.765V34.882h-34.882V0H131.905L49.468,82.437v318.259h34.883v34.883h34.882v34.882h301.76V69.765H386.11z
		 M127.805,23.899v54.437H73.367L127.805,23.899z M63.468,92.336h78.337V14h195.424v372.695H63.468V92.336z M98.351,400.695h252.878
		V48.882h20.882v372.696H98.351V400.695z M406.992,456.46h-273.76v-20.882H386.11V83.765h20.882V456.46z"/>
	<rect x="103.882" y="109.431" width="192.932" height="14"/>
	<rect x="103.882" y="146.83" width="192.932" height="14"/>
	<rect x="103.882" y="184.229" width="192.932" height="14"/>
	<rect x="103.882" y="221.629" width="192.932" height="14"/>
	<rect x="103.882" y="259.028" width="192.932" height="14"/>
	<rect x="103.882" y="296.427" width="192.932" height="14"/>
	<rect x="103.882" y="333.826" width="192.932" height="14"/>
</g>
<g>
</g>
<g>
</g>
<g>
</g>
<g>
</g>
<g>
</g>
<g>
</g>
<g>
</g>
<g>
</g>
<g>
</g>
<g>
</g>
<g>
</g>
<g>
</g>
<g>
</g>
<g>
</g>
<g>
</g>
</svg>
