<svg width="168" height="32" viewBox="0 0 168 32" fill="none" xmlns="http://www.w3.org/2000/svg">
<path d="M27.1021 21.463C26.1549 23.1584 24.8084 24.4832 23.0626 25.4467C21.3167 26.4101 19.2644 26.8919 16.9057 26.8919H8V4.5929H16.9057C19.2644 4.5929 21.3167 5.05611 23.0811 5.99179C24.8363 6.92748 26.1828 8.23373 27.1207 9.91055C28.0587 11.5874 28.523 13.5143 28.523 15.6729C28.523 17.8315 28.0494 19.7584 27.1021 21.4538V21.463ZM20.6574 19.8696C21.7067 18.8876 22.2361 17.4887 22.2361 15.6822C22.2361 13.8756 21.7067 12.5045 20.6574 11.5133C19.608 10.5127 18.1593 10.0125 16.3299 10.0125H14.2126V21.3519H16.3299C18.1593 21.3519 19.5987 20.8609 20.6574 19.8696Z" fill="#FCFCFC"/>
<path d="M46.6779 23.1769H38.7566L37.5215 26.8919H30.9839L39.1652 4.68555H46.3343L54.4785 26.8919H47.913L46.6779 23.1769ZM45.1271 18.517L42.7312 11.2724L40.2982 18.517H45.1271Z" fill="#FCFCFC"/>
<path d="M74.3979 4.60217V9.54926H68.371V26.9012H62.1863V9.54926H56.2151V4.60217H74.3979Z" fill="#FCFCFC"/>
<path d="M91.8284 23.1769H83.9071L82.672 26.8919H76.1344L84.3157 4.68555H91.4848L99.629 26.8919H93.0635L91.8284 23.1769ZM90.2776 18.517L87.8817 11.2724L85.4487 18.517H90.2776Z" fill="#FCFCFC"/>
<path d="M101.431 7.37218V4.69482H107.81V26.9012H104.783V7.37218H101.44H101.431Z" fill="url(#paint0_linear_3587_295)"/>
<path d="M114.469 6.92749C115.054 6.02886 115.936 5.30625 117.087 4.78746C118.248 4.2594 119.623 4 121.22 4C122.817 4 124.192 4.2594 125.343 4.78746C126.495 5.31552 127.358 6.02886 127.943 6.92749C128.528 7.83538 128.825 8.82666 128.825 9.91984C128.825 11.1612 128.491 12.2266 127.813 13.1345C127.135 14.0424 126.123 14.6816 124.749 15.0522C126.225 15.4506 127.368 16.1454 128.194 17.1274C129.011 18.1187 129.429 19.3323 129.429 20.7775C129.429 22.8805 128.686 24.5295 127.191 25.7246C125.696 26.9197 123.709 27.5219 121.22 27.5219C118.731 27.5219 116.744 26.9197 115.249 25.7246C113.754 24.5295 113.011 22.8805 113.011 20.7775C113.011 19.3323 113.419 18.1094 114.227 17.1274C115.035 16.1454 116.177 15.4506 117.654 15.0522C116.289 14.6724 115.267 14.0332 114.589 13.1345C113.912 12.2359 113.577 11.1612 113.577 9.91984C113.577 8.82666 113.874 7.83538 114.459 6.92749H114.469ZM117.282 23.9551C118.248 24.7426 119.567 25.1409 121.229 25.1409C122.891 25.1409 124.173 24.7426 125.148 23.9459C126.114 23.1491 126.597 22.0467 126.597 20.6385C126.597 19.2304 126.095 18.1279 125.083 17.3961C124.071 16.6642 122.789 16.2936 121.229 16.2936C119.669 16.2936 118.36 16.6642 117.347 17.3961C116.335 18.1279 115.834 19.2118 115.834 20.6385C115.834 22.0652 116.317 23.1769 117.282 23.9644V23.9551ZM117.728 13.2457C118.592 13.9312 119.762 14.2648 121.229 14.2648C122.696 14.2648 123.867 13.922 124.721 13.2457C125.575 12.5601 126.002 11.5874 126.002 10.3275C126.002 9.06753 125.575 8.09479 124.712 7.40923C123.848 6.72368 122.687 6.39017 121.238 6.39017C119.79 6.39017 118.62 6.73294 117.747 7.40923C116.874 8.09479 116.437 9.05827 116.437 10.3275C116.437 11.5967 116.865 12.5601 117.728 13.2457Z" fill="url(#paint1_linear_3587_295)"/>
<path d="M145.365 7.53898C144.64 6.81637 143.628 6.45507 142.347 6.45507C140.554 6.45507 139.208 7.14989 138.288 8.53025C137.369 9.91989 136.914 12.1062 136.914 15.1171L136.942 16.2844C137.258 15.0245 137.982 14.0239 139.124 13.2735C140.257 12.5324 141.594 12.1526 143.136 12.1526C145.346 12.1526 147.073 12.8103 148.327 14.1351C149.581 15.4599 150.203 17.3035 150.203 19.6751C150.203 21.0647 149.934 22.3154 149.386 23.4364C148.838 24.5574 148.002 25.456 146.878 26.1137C145.755 26.7715 144.362 27.105 142.699 27.105C139.523 27.105 137.341 26.1045 136.152 24.1127C134.964 22.1209 134.37 19.4064 134.37 15.9879C134.37 12.0414 135.01 9.07684 136.283 7.0943C137.555 5.11175 139.635 4.12048 142.514 4.12048C144.64 4.12048 146.275 4.72266 147.426 5.91774C148.578 7.11283 149.256 8.67848 149.46 10.6147H146.711C146.544 9.28992 146.098 8.27086 145.365 7.54825V7.53898ZM138.604 23.0658C139.496 24.1034 140.842 24.6222 142.625 24.6222C144.102 24.6222 145.281 24.1868 146.163 23.3159C147.045 22.4451 147.491 21.2222 147.491 19.6473C147.491 17.9427 147.045 16.6457 146.163 15.7563C145.281 14.867 144.055 14.4223 142.504 14.4223C141.622 14.4223 140.777 14.5983 139.978 14.9596C139.18 15.3209 138.53 15.8583 138.019 16.5809C137.518 17.3035 137.258 18.1836 137.258 19.2119C137.258 20.7405 137.703 22.0282 138.595 23.0751L138.604 23.0658Z" fill="url(#paint2_linear_3587_295)"/>
<path d="M153.62 7.37218V4.69482H160V26.9012H156.973V7.37218H153.63H153.62Z" fill="url(#paint3_linear_3587_295)"/>
<defs>
<linearGradient id="paint0_linear_3587_295" x1="104.62" y1="4.69482" x2="104.62" y2="26.9012" gradientUnits="userSpaceOnUse">
<stop stop-color="#24EEBD"/>
<stop offset="0.510417" stop-color="#24EEBD"/>
<stop offset="1" stop-color="#24EEBD" stop-opacity="0.3"/>
</linearGradient>
<linearGradient id="paint1_linear_3587_295" x1="121.22" y1="4" x2="121.22" y2="27.5219" gradientUnits="userSpaceOnUse">
<stop stop-color="#24EEBD"/>
<stop offset="0.510417" stop-color="#24EEBD"/>
<stop offset="1" stop-color="#24EEBD" stop-opacity="0.3"/>
</linearGradient>
<linearGradient id="paint2_linear_3587_295" x1="142.286" y1="4.12048" x2="142.286" y2="27.105" gradientUnits="userSpaceOnUse">
<stop stop-color="#24EEBD"/>
<stop offset="0.510417" stop-color="#24EEBD"/>
<stop offset="1" stop-color="#24EEBD" stop-opacity="0.3"/>
</linearGradient>
<linearGradient id="paint3_linear_3587_295" x1="156.81" y1="4.69482" x2="156.81" y2="26.9012" gradientUnits="userSpaceOnUse">
<stop stop-color="#24EEBD"/>
<stop offset="0.510417" stop-color="#24EEBD"/>
<stop offset="1" stop-color="#24EEBD" stop-opacity="0.3"/>
</linearGradient>
</defs>
</svg>
