<svg width="14" height="16" viewBox="0 0 14 16" fill="none" xmlns="http://www.w3.org/2000/svg">
<g clip-path="url(#clip0_49_40)">
<path d="M7.00281 16C9.94027 15.8988 12.2273 14.6311 13.8632 12.1531C14.024 11.9102 14.0473 11.6966 13.9105 11.4319C13.1054 9.87251 11.8609 8.92454 10.1532 8.63415C9.95376 8.60043 9.6942 8.66101 9.52177 8.77279C7.83919 9.86627 6.17012 9.87002 4.48325 8.78466C4.30836 8.67225 4.05125 8.59918 3.85243 8.63228C2.15636 8.91455 0.91621 9.85503 0.0976257 11.3888C-0.0398273 11.6467 -0.0373726 11.8528 0.12708 12.1051C1.76486 14.6142 4.06291 15.8969 7.00281 16Z" fill="#0FDEAC"/>
<path d="M2.92029 4.17968C2.95159 6.48029 4.79187 8.32503 7.03162 8.30067C9.27751 8.27632 11.108 6.3735 11.0681 4.10474C11.0276 1.80163 9.18915 -0.0268661 6.94203 -1.31634e-05C4.71455 0.0274643 2.88961 1.92403 2.92029 4.17968Z" fill="#0FDEAC"/>
</g>
<defs>
<clipPath id="clip0_49_40">
<rect width="14" height="16" fill="white" transform="matrix(-1 0 0 1 14 0)"/>
</clipPath>
</defs>
</svg>
